<svg xmlns="http://www.w3.org/2000/svg" viewBox="0 0 19.25 18.25"><defs><style>.cls-1{fill:#231815;}</style></defs><title>アセット 5</title><g id="レイヤー_2" data-name="レイヤー 2"><g id="PHOTO"><path class="cls-1" d="M18.94,9.56a.31.31,0,0,0,.31-.31V8.88a.3.3,0,0,0-.31-.3h-2.3V4.77a.34.34,0,0,0-.31-.33l-.16,0a5.56,5.56,0,0,1-1.06-.21A.28.28,0,0,1,15,4a.68.68,0,0,1,.07-.28A3.6,3.6,0,0,0,15.49,2a1.88,1.88,0,0,0-1.77-2A1.88,1.88,0,0,0,12,2a3.6,3.6,0,0,0,.42,1.67.68.68,0,0,1,.07.28.28.28,0,0,1-.11.26,5.39,5.39,0,0,1-1.06.21l-.16,0a.34.34,0,0,0-.31.33V8.58H8.45V4.77a.34.34,0,0,0-.3-.33L8,4.42a5.56,5.56,0,0,1-1.06-.21A.28.28,0,0,1,6.81,4a.68.68,0,0,1,.07-.28A3.6,3.6,0,0,0,7.3,2,1.88,1.88,0,0,0,5.53,0,1.88,1.88,0,0,0,3.76,2a3.6,3.6,0,0,0,.42,1.67A.55.55,0,0,1,4.25,4a.24.24,0,0,1-.11.26,5.24,5.24,0,0,1-1.06.21l-.16,0a.34.34,0,0,0-.31.33V8.58H.31a.3.3,0,0,0-.31.3v.37a.31.31,0,0,0,.31.31h2.3v2a.31.31,0,0,0,.29.31H4v6a.31.31,0,0,0,.31.29H6.74A.3.3,0,0,0,7.05,18v-6H8.16a.3.3,0,0,0,.29-.31v-2ZM7.47,10.93H6.36a.29.29,0,0,0-.29.3v6H5v-6a.29.29,0,0,0-.28-.3H3.59V5.35c.93-.12,1.09-.29,1.23-.39a1.26,1.26,0,0,0,.41-1,1.6,1.6,0,0,0-.17-.73A2.65,2.65,0,0,1,4.74,2a.92.92,0,0,1,.79-1c.45,0,.79.45.79,1A2.65,2.65,0,0,1,6,3.24,1.74,1.74,0,0,0,5.84,4a1.25,1.25,0,0,0,.4,1c.14.1.3.27,1.23.39Zm4.31-2.35V5.35c.93-.12,1.09-.29,1.23-.39a1.26,1.26,0,0,0,.41-1,1.74,1.74,0,0,0-.17-.73A2.65,2.65,0,0,1,12.93,2a.92.92,0,0,1,.79-1,.92.92,0,0,1,.79,1,2.65,2.65,0,0,1-.32,1.24A1.74,1.74,0,0,0,14,4a1.26,1.26,0,0,0,.41,1c.14.1.3.27,1.23.39V8.58Z"/></g></g></svg>