<?xml version="1.0" encoding="utf-8"?>
<!-- Generator: Adobe Illustrator 23.0.0, SVG Export Plug-In . SVG Version: 6.00 Build 0)  -->
<svg version="1.1" id="レイヤー_1" xmlns="http://www.w3.org/2000/svg" xmlns:xlink="http://www.w3.org/1999/xlink" x="0px"
	 y="0px" viewBox="0 0 14.7 17.7" style="enable-background:new 0 0 14.7 17.7;" xml:space="preserve">
<style type="text/css">
	.st0{fill:#231815;}
</style>
<title>アセット 6</title>
<g>
	<g id="PHOTO">
		<path class="st0" d="M5,3.6c0.8,0,1.4-0.5,1.7-1.3h1.7v1.8c0,0.1,0.1,0.3,0.3,0.3l0,0h0.3c0.1,0,0.3-0.1,0.3-0.3l0,0V2.3h1.1v1.8
			c0,0.1,0.1,0.3,0.3,0.3l0,0H11c0.1,0,0.3-0.1,0.3-0.3l0,0V1.6c0-0.1-0.1-0.3-0.3-0.3l0,0H6.6C6.4,0.4,5.4-0.1,4.5,0.2
			S3.1,1.4,3.3,2.4C3.6,3.1,4.2,3.6,5,3.6z M5,1.1c0.4,0,0.9,0.3,0.9,0.8S5.5,2.6,5.1,2.6S4.2,2.3,4.2,1.9S4.5,1.1,5,1.1z"/>
		<path class="st0" d="M4.1,15.2h6.5c0.7,0,1.2-0.6,1.2-1.2v-2.8c0-0.7-0.5-1.2-1.2-1.2h-1V9c0-0.7-0.6-1.2-1.2-1.2H6.3
			C5.6,7.8,5.1,8.3,5.1,9v1.1h-1c-0.7,0-1.2,0.5-1.2,1.2v2.8C2.9,14.6,3.4,15.2,4.1,15.2z M6.1,9c0-0.1,0.1-0.2,0.2-0.2l0,0h2.1
			c0.1,0,0.2,0.1,0.2,0.2v1.1H6.1V9z M3.9,11.2C3.9,11.1,4,11,4.1,11h6.5c0.1,0,0.2,0.1,0.2,0.2V14c0,0.1-0.1,0.2-0.2,0.2H4.1
			c-0.1,0-0.2-0.1-0.2-0.2C3.9,14,3.9,11.2,3.9,11.2z"/>
		<path class="st0" d="M14.3,5.6h-14C0.3,5.6,0,5.7,0,5.9l0,0v11.4c0,0.1,0.1,0.3,0.3,0.3h14c0.1,0,0.3-0.1,0.3-0.3V5.9
			C14.6,5.7,14.4,5.6,14.3,5.6L14.3,5.6z M13.7,16.7H1V6.6h12.5v10.1H13.7z"/>
	</g>
</g>
</svg>
