<svg xmlns="http://www.w3.org/2000/svg" viewBox="0 0 40.44 15.7"><defs><style>.cls-1{fill:#231815;}</style></defs><title>アセット 1</title><g id="レイヤー_2" data-name="レイヤー 2"><g id="PHOTO"><path class="cls-1" d="M8.34,4.79H7.69a.27.27,0,0,0-.18.07L6.23,6.14a.1.1,0,0,0,0,.14l.44.45a.1.1,0,0,0,.14,0l.81-.8V10.6a.1.1,0,0,0,.1.1h.62a.1.1,0,0,0,.1-.1V4.89A.09.09,0,0,0,8.34,4.79Z"/><path class="cls-1" d="M40.35,7.65l-.11-.12L36,3.24a.28.28,0,0,0-.4,0l-.24.24a.28.28,0,0,0,0,.4L38.83,7.4H15.67a7.85,7.85,0,1,0,0,.9H38.83l-3.52,3.52a.28.28,0,0,0,0,.4l.24.24a.28.28,0,0,0,.4,0l4.4-4.41A.27.27,0,0,0,40.35,7.65ZM7.85,14.8a7,7,0,1,1,6.94-7A7,7,0,0,1,7.85,14.8Z"/></g></g></svg>