<svg xmlns="http://www.w3.org/2000/svg" viewBox="0 0 40.44 15.7"><defs><style>.cls-1{fill:#231815;}</style></defs><title>アセット 2</title><g id="レイヤー_2" data-name="レイヤー 2"><g id="PHOTO"><path class="cls-1" d="M40.36,7.65l-.12-.12L36,3.24a.28.28,0,0,0-.4,0l-.24.24a.28.28,0,0,0,0,.4L38.83,7.4H15.68a7.85,7.85,0,1,0,0,.9H38.83l-3.52,3.52a.28.28,0,0,0,0,.4l.24.24a.28.28,0,0,0,.4,0l4.41-4.41A.28.28,0,0,0,40.36,7.65ZM7.85,14.8a7,7,0,1,1,6.94-7A7,7,0,0,1,7.85,14.8Z"/><path class="cls-1" d="M9.75,10H7.08L8.79,8.55a3,3,0,0,0,.82-1,3,3,0,0,0,.21-.91,2.68,2.68,0,0,0,0-.61,1.37,1.37,0,0,0-.35-.7,1.51,1.51,0,0,0-.7-.36,3.56,3.56,0,0,0-.88-.08A3.7,3.7,0,0,0,7,4.94a1.47,1.47,0,0,0-.69.36A1.41,1.41,0,0,0,5.9,6a2.61,2.61,0,0,0-.06.32.1.1,0,0,0,.09.11l.65.07a.09.09,0,0,0,.11-.09c0-.1,0-.16,0-.16.14-.49.52-.59,1.14-.59s1,.18,1.1.58a1.11,1.11,0,0,1,0,.19c0,.29.06.83-.87,1.66,0,0-1.75,1.43-2.17,1.82a.21.21,0,0,0-.08.17v.66a.11.11,0,0,0,.11.1H9.75a.11.11,0,0,0,.11-.1v-.62A.11.11,0,0,0,9.75,10Z"/></g></g></svg>