<svg xmlns="http://www.w3.org/2000/svg" viewBox="0 0 40.44 15.7"><defs><style>.cls-1{fill:#231815;}</style></defs><title>アセット 3</title><g id="レイヤー_2" data-name="レイヤー 2"><g id="PHOTO"><path class="cls-1" d="M40.36,7.65l-.12-.12L36,3.24a.28.28,0,0,0-.4,0l-.24.24a.28.28,0,0,0,0,.4L38.83,7.4H15.67a7.85,7.85,0,1,0,0,.9H38.83l-3.52,3.51a.3.3,0,0,0,0,.41l.24.24a.28.28,0,0,0,.4,0l4.41-4.41A.28.28,0,0,0,40.36,7.65ZM7.85,14.8a7,7,0,1,1,7-7A7,7,0,0,1,7.85,14.8Z"/><path class="cls-1" d="M9.67,7.21a2.57,2.57,0,0,0,.08-.74,2.53,2.53,0,0,0-.08-.74,1.05,1.05,0,0,0-.36-.58,1.47,1.47,0,0,0-.69-.31,5.73,5.73,0,0,0-.83-.07H7.73a5.73,5.73,0,0,0-.83.07,1.47,1.47,0,0,0-.69.31,1.23,1.23,0,0,0-.44.79.12.12,0,0,0,.09.13l.65.12a.12.12,0,0,0,.13-.09c.11-.42.48-.5,1.12-.5.91,0,1.17.19,1.17.87s-.26.86-1.2.86H7.31a.1.1,0,0,0-.1.11v.61a.11.11,0,0,0,.1.11h.42c.94,0,1.2.19,1.2.91s-.26.91-1.2.91c-.58,0-.94-.06-1.1-.38a.11.11,0,0,0-.13,0l-.66.23a.09.09,0,0,0-.07.13,1.4,1.4,0,0,0,.38.56,1.42,1.42,0,0,0,.7.32,4.12,4.12,0,0,0,.88.08,4.23,4.23,0,0,0,.89-.08,1.39,1.39,0,0,0,.69-.32,1.2,1.2,0,0,0,.36-.61,2.91,2.91,0,0,0,.08-.79,2.78,2.78,0,0,0-.08-.78,1.22,1.22,0,0,0-.26-.52l0,0,0,0A1.12,1.12,0,0,0,9.67,7.21Z"/></g></g></svg>