<svg xmlns="http://www.w3.org/2000/svg" viewBox="0 0 17.74 16.59"><defs><style>.cls-1{fill:#231815;}</style></defs><title>アセット 7</title><g id="レイヤー_2" data-name="レイヤー 2"><g id="PHOTO"><path class="cls-1" d="M7.17,0a.77.77,0,0,0-.54.22l-2,2a.31.31,0,0,0,0,.44L9.18,7.25a.3.3,0,0,0,.43,0l1.75-1.75c.55.54,2.76,2.76,3,3v7.75a.32.32,0,0,0,.31.33h2.76a.31.31,0,0,0,.31-.31V7a.77.77,0,0,0-.22-.54L11.25.22A.79.79,0,0,0,10.71,0Zm3.44,1c.28.27,5.86,5.85,6.13,6.13V15.6H15.36V8.42a.82.82,0,0,0-.22-.55L11.58,4.31a.3.3,0,0,0-.43,0L9.4,6.06,5.8,2.46,7.27,1Z"/><path class="cls-1" d="M5.53,5.77a.31.31,0,1,1,0-.44A.31.31,0,0,1,5.53,5.77Z"/><path class="cls-1" d="M4.58,6.57a.32.32,0,0,1-.41-.48.32.32,0,1,1,.41.48Z"/><path class="cls-1" d="M3.62,7.37a.31.31,0,1,1,0-.44A.32.32,0,0,1,3.62,7.37Z"/><path class="cls-1" d="M2.66,8.17a.3.3,0,0,1-.44,0,.31.31,0,0,1,.48-.4A.31.31,0,0,1,2.66,8.17Z"/><path class="cls-1" d="M1.71,9a.32.32,0,0,1-.44,0,.31.31,0,0,1,.48-.4A.32.32,0,0,1,1.71,9Z"/><path class="cls-1" d="M.75,9.78a.31.31,0,1,1,0-.44A.32.32,0,0,1,.75,9.78Z"/><path class="cls-1" d="M4.79,4.55a.3.3,0,0,1-.42-.11A.31.31,0,0,1,4.48,4a.31.31,0,0,1,.42.11A.31.31,0,0,1,4.79,4.55Z"/><path class="cls-1" d="M3.71,5.17a.31.31,0,0,1-.31-.53.31.31,0,1,1,.31.53Z"/><path class="cls-1" d="M2.63,5.8a.31.31,0,0,1-.31-.54.31.31,0,0,1,.43.11A.32.32,0,0,1,2.63,5.8Z"/><path class="cls-1" d="M1.55,6.42a.31.31,0,0,1-.43-.11.32.32,0,0,1,.12-.43A.31.31,0,0,1,1.66,6,.3.3,0,0,1,1.55,6.42Z"/><path class="cls-1" d="M.47,7.05A.31.31,0,0,1,0,6.93a.3.3,0,0,1,.12-.42.3.3,0,0,1,.42.11A.31.31,0,0,1,.47,7.05Z"/><path class="cls-1" d="M6.57,6.73a.31.31,0,0,1-.48-.4.33.33,0,0,1,.45,0A.32.32,0,0,1,6.57,6.73Z"/><path class="cls-1" d="M5.77,7.69a.31.31,0,0,1-.44,0,.31.31,0,1,1,.4-.47A.31.31,0,0,1,5.77,7.69Z"/><path class="cls-1" d="M5,8.64a.31.31,0,1,1,0-.44A.32.32,0,0,1,5,8.64Z"/><path class="cls-1" d="M4.17,9.6a.32.32,0,0,1-.44,0,.31.31,0,0,1,.4-.48A.32.32,0,0,1,4.17,9.6Z"/><path class="cls-1" d="M3.36,10.56a.31.31,0,0,1-.44,0,.31.31,0,0,1,0-.44.32.32,0,0,1,.48.41Z"/><path class="cls-1" d="M2.56,11.51a.31.31,0,1,1,0-.44A.31.31,0,0,1,2.56,11.51Z"/><path class="cls-1" d="M7.85,7.38a.31.31,0,0,1-.43.11.3.3,0,0,1-.11-.42.31.31,0,1,1,.54.31Z"/><path class="cls-1" d="M7.22,8.46a.31.31,0,1,1-.53-.31.31.31,0,1,1,.53.31Z"/><path class="cls-1" d="M6.6,9.54a.32.32,0,0,1-.43.12.31.31,0,0,1,.32-.54A.3.3,0,0,1,6.6,9.54Z"/><path class="cls-1" d="M6,10.62a.31.31,0,0,1-.43.12.31.31,0,0,1-.11-.43.3.3,0,0,1,.42-.11A.31.31,0,0,1,6,10.62Z"/><path class="cls-1" d="M5.35,11.71a.31.31,0,0,1-.42.11.31.31,0,0,1-.12-.43.31.31,0,0,1,.54.32Z"/></g></g></svg>