<svg enable-background="new 0 0 56.7 56.7" viewBox="0 0 56.7 56.7" xmlns="http://www.w3.org/2000/svg"><path d="m1.5 13c2.7 0 4.9 2.2 4.9 4.9v20.7c0 2.7-2.2 4.9-4.9 4.9-.8-.1-1.4-.8-1.3-1.6.1-.7.6-1.3 1.3-1.3 1.1 0 2-.9 2-2v-20.6c0-1.1-.9-2-2-2-.8 0-1.4-.6-1.5-1.4.1-.9.7-1.6 1.5-1.6zm48.7 5v20.7c0 2.7 2.2 4.9 4.9 4.9.8.1 1.5-.5 1.6-1.3s-.5-1.5-1.3-1.6c-.1 0-.2 0-.2 0-1.1 0-2-.9-2-2v-20.7c0-1.1.9-2 2-2 .8 0 1.5-.6 1.5-1.4v-.1c0-.8-.7-1.5-1.5-1.5-2.8.1-5 2.3-5 5zm-20.9 30c4.5 0 9.8-.3 13.6-3s4.7-7.9 5-12.3c.4-4.4.2-8.8-.5-13.1-.8-4-2.8-7.5-6.6-9.2s-8.4-1.8-12.6-1.8-9 .1-12.8 2.1c-3.6 1.9-5.3 5.4-6 9.3-.7 4.4-.9 8.9-.4 13.3.3 4.1 1.2 8.6 4.5 11.3 3.6 2.9 8.6 3.2 13 3.4.8.1 1.8.1 2.8 0zm-2.4-2.8c-3.8 0-8.7-.2-11.7-2.9-2.4-2.1-3.1-5.4-3.4-8.4-.5-4-.4-8.1.1-12.1.5-3.3 1.6-6.7 4.8-8.4s7.3-1.9 11-1.9 7.8 0 11.3 1.4 5.1 4.2 5.8 7.7c.7 4.2.9 8.5.4 12.8-.3 3.2-1 6.9-3.6 9.1-3.1 2.6-7.8 2.7-11.6 2.8-1.2-.1-2.2-.1-3.1-.1z"/></svg>